<!DOCTYPE svg PUBLIC "-//W3C//DTD SVG 1.1//EN" "http://www.w3.org/Graphics/SVG/1.1/DTD/svg11.dtd">
<?xml version="1.0" encoding="utf-8"? ?>
<!-- Uploaded to: SVG Repo, www.svgrepo.com, Transformed by: SVG Repo Mixer Tools -->
<svg fill="#69b53f" width="800px" height="800px" viewBox="-3.2 -3.2 38.40 38.40" version="1.1" xmlns="http://www.w3.org/2000/svg" stroke="#69b53f">

<g id="SVGRepo_bgCarrier" stroke-width="0"/>

<g id="SVGRepo_tracerCarrier" stroke-linecap="round" stroke-linejoin="round" stroke="#CCCCCC" stroke-width="0.256"/>

<g id="SVGRepo_iconCarrier"> <title>linuxmint</title> <path d="M8.154 6.324h2.627v13.201c-0.005 0.064-0.008 0.139-0.008 0.214 0 1.532 1.173 2.789 2.67 2.923l0.011 0.001 8.963 0.038c0.078 0.007 0.17 0.011 0.262 0.011 1.591 0 2.901-1.207 3.063-2.755l0.001-0.013-0.015-7.009c0-0.010 0-0.023 0-0.035 0-0.435-0.186-0.828-0.482-1.102l-0.001-0.001c-0.292-0.296-0.698-0.48-1.147-0.48s-0.855 0.184-1.147 0.48l-0 0c-0.297 0.275-0.483 0.667-0.483 1.103 0 0.012 0 0.025 0 0.037l-0-0.002v5.997h-2.779v-5.996c-0.003-0.894-0.728-1.618-1.623-1.618-0.45 0-0.858 0.184-1.152 0.48l-0 0c-0.3 0.276-0.488 0.671-0.488 1.11 0 0.010 0 0.020 0 0.029l-0-0.001v5.998h-2.779v-5.997c-0-0.008-0-0.018-0-0.028 0-1.2 0.499-2.283 1.301-3.053l0.001-0.001c0.793-0.789 1.887-1.278 3.095-1.278 1.175 0 2.242 0.462 3.030 1.214l-0.002-0.002c0.787-0.751 1.856-1.213 3.032-1.213 1.209 0 2.304 0.488 3.099 1.278l-0-0c0.803 0.771 1.301 1.854 1.301 3.053 0 0.010-0 0.021-0 0.031v-0.002l0.011 7.489c-0.14 1.302-0.726 2.445-1.599 3.295l-0.001 0.001h-0.003c-0.992 1.014-2.374 1.643-3.904 1.643-0.023 0-0.045-0-0.067-0l0.003 0h-9.981v-0.047c-1.262-0.137-2.374-0.692-3.213-1.522l0.001 0c-0.987-0.934-1.601-2.253-1.601-3.716 0-0.016 0-0.033 0-0.049l-0 0.003v-13.707zM1 3.116v5.241h2.285c1.595 0 1.877 1.081 1.877 2.572l0.013 9.265c0.262 4.859 4.266 8.699 9.166 8.699 0.153 0 0.304-0.004 0.455-0.011l-0.021 0.001h13.080c0.086 0.009 0.186 0.014 0.288 0.014 1.507 0 2.742-1.163 2.857-2.64l0.001-0.010v-14.366c-0.263-4.858-4.266-8.698-9.166-8.698-0.154 0-0.307 0.004-0.459 0.011l0.021-0.001h-5.506v-0.016z"/> </g>

</svg>